# xmcd
#
# Track frame offsets: 
#        150
#        17620
#        35907
#        57417
#        75595
#        94817
#        107065
#        124385
#        143980
#        156347
#        171202
#        204950
#        217682
#        230280
#
# Disc length: 3306 seconds
#
# Revision: 0
# Processed by: cddbd v1.5.2PL0 Copyright (c) Steve Scherf et al.
# Submitted via: ExactAudioCopy v0.99pb4
#
DISCID=bc0ce80e
DTITLE=Blues Gang - Nostalgia
DYEAR=1992
DGENRE=Blues
TTITLE0=Ibu
TTITLE1=Apa Nak Dikato
TTITLE2=Khatulistiwa
TTITLE3=Jumpo Kawan Lamo
TTITLE4=Peristiwa Semalam
TTITLE5=Sakit Gigi
TTITLE6=Maafkan Diriku
TTITLE7=Oh Mama Saya Mahu Kahwin
TTITLE8=Cinta Oh Cinta
TTITLE9=Bunyi Gitar
TTITLE10=Parasite People
TTITLE11=Lagu Tiga Kupang
TTITLE12=Don't You Hide
TTITLE13=Bukan Senang Jadi Senang
EXTD=
EXTT0=
EXTT1=
EXTT2=
EXTT3=
EXTT4=
EXTT5=
EXTT6=
EXTT7=
EXTT8=
EXTT9=
EXTT10=
EXTT11=
EXTT12=
EXTT13=
PLAYORDER=
